<mxfile host="app.diagrams.net" modified="2023-11-17T15:11:23.112Z" agent="Mozilla/5.0 (Windows NT 10.0; Win64; x64) AppleWebKit/537.36 (KHTML, like Gecko) Chrome/119.0.0.0 Safari/537.36 Edg/119.0.0.0" etag="Fmgtyvduz6b2tDSwlS6D" version="22.1.2" type="github">
  <diagram name="Page-1" id="jYTc2wqYvklDoqYIhdDx">
    <mxGraphModel dx="2258" dy="1035" grid="1" gridSize="10" guides="1" tooltips="1" connect="1" arrows="1" fold="1" page="1" pageScale="1" pageWidth="850" pageHeight="1100" math="0" shadow="0">
      <root>
        <mxCell id="0" />
        <mxCell id="1" parent="0" />
        <mxCell id="sXfFxi1NR6_OD0r_vicM-1" value="API GATEWAY" style="rounded=0;whiteSpace=wrap;html=1;" vertex="1" parent="1">
          <mxGeometry x="240" y="190" width="120" height="750" as="geometry" />
        </mxCell>
        <mxCell id="sXfFxi1NR6_OD0r_vicM-7" value="" style="edgeStyle=orthogonalEdgeStyle;rounded=0;orthogonalLoop=1;jettySize=auto;html=1;entryX=0;entryY=0.5;entryDx=0;entryDy=0;" edge="1" parent="1" source="sXfFxi1NR6_OD0r_vicM-2" target="sXfFxi1NR6_OD0r_vicM-1">
          <mxGeometry relative="1" as="geometry">
            <mxPoint x="165" y="330" as="targetPoint" />
          </mxGeometry>
        </mxCell>
        <mxCell id="sXfFxi1NR6_OD0r_vicM-2" value="Driver" style="shape=umlActor;verticalLabelPosition=bottom;verticalAlign=top;html=1;outlineConnect=0;" vertex="1" parent="1">
          <mxGeometry x="80" y="660" width="30" height="70" as="geometry" />
        </mxCell>
        <mxCell id="sXfFxi1NR6_OD0r_vicM-17" value="" style="edgeStyle=orthogonalEdgeStyle;rounded=0;orthogonalLoop=1;jettySize=auto;html=1;entryX=0;entryY=0.25;entryDx=0;entryDy=0;" edge="1" parent="1" source="sXfFxi1NR6_OD0r_vicM-3" target="sXfFxi1NR6_OD0r_vicM-1">
          <mxGeometry relative="1" as="geometry">
            <mxPoint x="195" y="150" as="targetPoint" />
            <Array as="points">
              <mxPoint x="128" y="120" />
              <mxPoint x="128" y="220" />
              <mxPoint x="195" y="220" />
              <mxPoint x="195" y="227" />
            </Array>
          </mxGeometry>
        </mxCell>
        <mxCell id="sXfFxi1NR6_OD0r_vicM-3" value="USER" style="shape=umlActor;verticalLabelPosition=bottom;verticalAlign=top;html=1;outlineConnect=0;" vertex="1" parent="1">
          <mxGeometry x="70" y="90" width="30" height="60" as="geometry" />
        </mxCell>
        <mxCell id="sXfFxi1NR6_OD0r_vicM-24" value="" style="edgeStyle=orthogonalEdgeStyle;rounded=0;orthogonalLoop=1;jettySize=auto;html=1;" edge="1" parent="1" source="sXfFxi1NR6_OD0r_vicM-10" target="sXfFxi1NR6_OD0r_vicM-1">
          <mxGeometry relative="1" as="geometry">
            <Array as="points">
              <mxPoint x="450" y="280" />
              <mxPoint x="400" y="280" />
              <mxPoint x="400" y="360" />
            </Array>
          </mxGeometry>
        </mxCell>
        <mxCell id="sXfFxi1NR6_OD0r_vicM-29" value="" style="edgeStyle=orthogonalEdgeStyle;rounded=0;orthogonalLoop=1;jettySize=auto;html=1;entryX=-0.027;entryY=0.073;entryDx=0;entryDy=0;entryPerimeter=0;" edge="1" parent="1" source="sXfFxi1NR6_OD0r_vicM-10" target="sXfFxi1NR6_OD0r_vicM-23">
          <mxGeometry relative="1" as="geometry">
            <mxPoint x="700" y="280" as="targetPoint" />
            <Array as="points">
              <mxPoint x="720" y="200" />
              <mxPoint x="720" y="258" />
            </Array>
          </mxGeometry>
        </mxCell>
        <mxCell id="sXfFxi1NR6_OD0r_vicM-49" value="NOTIFY USER&amp;nbsp;&lt;br&gt;ACCEPTANCE" style="edgeLabel;html=1;align=center;verticalAlign=middle;resizable=0;points=[];" vertex="1" connectable="0" parent="sXfFxi1NR6_OD0r_vicM-29">
          <mxGeometry x="-0.1123" y="-3" relative="1" as="geometry">
            <mxPoint as="offset" />
          </mxGeometry>
        </mxCell>
        <mxCell id="sXfFxi1NR6_OD0r_vicM-60" style="edgeStyle=orthogonalEdgeStyle;rounded=0;orthogonalLoop=1;jettySize=auto;html=1;exitX=0.5;exitY=1;exitDx=0;exitDy=0;entryX=0.75;entryY=1;entryDx=0;entryDy=0;" edge="1" parent="1" source="sXfFxi1NR6_OD0r_vicM-10" target="sXfFxi1NR6_OD0r_vicM-55">
          <mxGeometry relative="1" as="geometry" />
        </mxCell>
        <mxCell id="sXfFxi1NR6_OD0r_vicM-10" value="USER SERVICE" style="whiteSpace=wrap;html=1;aspect=fixed;" vertex="1" parent="1">
          <mxGeometry x="410" y="180" width="80" height="80" as="geometry" />
        </mxCell>
        <mxCell id="sXfFxi1NR6_OD0r_vicM-27" value="" style="edgeStyle=orthogonalEdgeStyle;rounded=0;orthogonalLoop=1;jettySize=auto;html=1;" edge="1" parent="1" source="sXfFxi1NR6_OD0r_vicM-11" target="sXfFxi1NR6_OD0r_vicM-1">
          <mxGeometry relative="1" as="geometry">
            <Array as="points">
              <mxPoint x="420" y="870" />
              <mxPoint x="420" y="700" />
            </Array>
          </mxGeometry>
        </mxCell>
        <mxCell id="sXfFxi1NR6_OD0r_vicM-11" value="DRIVER SERVICE" style="whiteSpace=wrap;html=1;aspect=fixed;" vertex="1" parent="1">
          <mxGeometry x="480" y="800" width="80" height="80" as="geometry" />
        </mxCell>
        <mxCell id="sXfFxi1NR6_OD0r_vicM-25" value="" style="edgeStyle=orthogonalEdgeStyle;rounded=0;orthogonalLoop=1;jettySize=auto;html=1;" edge="1" parent="1" source="sXfFxi1NR6_OD0r_vicM-18" target="sXfFxi1NR6_OD0r_vicM-1">
          <mxGeometry relative="1" as="geometry" />
        </mxCell>
        <mxCell id="sXfFxi1NR6_OD0r_vicM-41" value="BROADCAST TO&amp;nbsp;&lt;br&gt;DRIVER" style="edgeLabel;html=1;align=center;verticalAlign=middle;resizable=0;points=[];" vertex="1" connectable="0" parent="sXfFxi1NR6_OD0r_vicM-25">
          <mxGeometry x="-0.0133" relative="1" as="geometry">
            <mxPoint as="offset" />
          </mxGeometry>
        </mxCell>
        <mxCell id="sXfFxi1NR6_OD0r_vicM-31" value="" style="edgeStyle=orthogonalEdgeStyle;rounded=0;orthogonalLoop=1;jettySize=auto;html=1;entryX=-0.009;entryY=0.35;entryDx=0;entryDy=0;entryPerimeter=0;" edge="1" parent="1" source="sXfFxi1NR6_OD0r_vicM-18" target="sXfFxi1NR6_OD0r_vicM-23">
          <mxGeometry relative="1" as="geometry">
            <mxPoint x="700" y="460" as="targetPoint" />
          </mxGeometry>
        </mxCell>
        <mxCell id="sXfFxi1NR6_OD0r_vicM-48" value="REQUEST&amp;nbsp;&lt;br&gt;OFUSER" style="edgeLabel;html=1;align=center;verticalAlign=middle;resizable=0;points=[];" vertex="1" connectable="0" parent="sXfFxi1NR6_OD0r_vicM-31">
          <mxGeometry x="-0.2691" y="7" relative="1" as="geometry">
            <mxPoint x="1" as="offset" />
          </mxGeometry>
        </mxCell>
        <mxCell id="sXfFxi1NR6_OD0r_vicM-44" style="edgeStyle=orthogonalEdgeStyle;rounded=0;orthogonalLoop=1;jettySize=auto;html=1;exitX=0.25;exitY=1;exitDx=0;exitDy=0;entryX=0.5;entryY=0;entryDx=0;entryDy=0;" edge="1" parent="1" source="sXfFxi1NR6_OD0r_vicM-18" target="sXfFxi1NR6_OD0r_vicM-19">
          <mxGeometry relative="1" as="geometry" />
        </mxCell>
        <mxCell id="sXfFxi1NR6_OD0r_vicM-18" value="BOOKING SERVICE" style="whiteSpace=wrap;html=1;aspect=fixed;" vertex="1" parent="1">
          <mxGeometry x="500" y="470" width="80" height="80" as="geometry" />
        </mxCell>
        <mxCell id="sXfFxi1NR6_OD0r_vicM-26" value="" style="edgeStyle=orthogonalEdgeStyle;rounded=0;orthogonalLoop=1;jettySize=auto;html=1;" edge="1" parent="1" source="sXfFxi1NR6_OD0r_vicM-19" target="sXfFxi1NR6_OD0r_vicM-1">
          <mxGeometry relative="1" as="geometry">
            <Array as="points">
              <mxPoint x="420" y="650" />
              <mxPoint x="420" y="590" />
            </Array>
          </mxGeometry>
        </mxCell>
        <mxCell id="sXfFxi1NR6_OD0r_vicM-40" value="LOCATION&lt;br&gt;UPDATE" style="edgeLabel;html=1;align=center;verticalAlign=middle;resizable=0;points=[];" vertex="1" connectable="0" parent="sXfFxi1NR6_OD0r_vicM-26">
          <mxGeometry x="0.0146" y="2" relative="1" as="geometry">
            <mxPoint as="offset" />
          </mxGeometry>
        </mxCell>
        <mxCell id="sXfFxi1NR6_OD0r_vicM-39" value="" style="edgeStyle=orthogonalEdgeStyle;rounded=0;orthogonalLoop=1;jettySize=auto;html=1;entryX=0.5;entryY=0;entryDx=0;entryDy=0;entryPerimeter=0;" edge="1" parent="1" source="sXfFxi1NR6_OD0r_vicM-19" target="sXfFxi1NR6_OD0r_vicM-35">
          <mxGeometry relative="1" as="geometry">
            <mxPoint x="520" y="779.9999999999998" as="targetPoint" />
          </mxGeometry>
        </mxCell>
        <mxCell id="sXfFxi1NR6_OD0r_vicM-19" value="LOCATION SERVICE" style="whiteSpace=wrap;html=1;aspect=fixed;" vertex="1" parent="1">
          <mxGeometry x="500" y="640" width="80" height="80" as="geometry" />
        </mxCell>
        <mxCell id="sXfFxi1NR6_OD0r_vicM-52" style="edgeStyle=orthogonalEdgeStyle;rounded=0;orthogonalLoop=1;jettySize=auto;html=1;entryX=0.5;entryY=0;entryDx=0;entryDy=0;" edge="1" parent="1" source="sXfFxi1NR6_OD0r_vicM-20" target="sXfFxi1NR6_OD0r_vicM-10">
          <mxGeometry relative="1" as="geometry" />
        </mxCell>
        <mxCell id="sXfFxi1NR6_OD0r_vicM-20" value="DATABASE" style="shape=cylinder3;whiteSpace=wrap;html=1;boundedLbl=1;backgroundOutline=1;size=15;" vertex="1" parent="1">
          <mxGeometry x="590" y="90" width="60" height="80" as="geometry" />
        </mxCell>
        <mxCell id="sXfFxi1NR6_OD0r_vicM-23" value="MESSAGING QUEUE" style="rounded=0;whiteSpace=wrap;html=1;" vertex="1" parent="1">
          <mxGeometry x="810" y="205" width="150" height="720" as="geometry" />
        </mxCell>
        <mxCell id="sXfFxi1NR6_OD0r_vicM-35" value="DATABASE" style="shape=cylinder3;whiteSpace=wrap;html=1;boundedLbl=1;backgroundOutline=1;size=15;" vertex="1" parent="1">
          <mxGeometry x="650" y="690" width="60" height="80" as="geometry" />
        </mxCell>
        <mxCell id="sXfFxi1NR6_OD0r_vicM-43" style="edgeStyle=orthogonalEdgeStyle;rounded=0;orthogonalLoop=1;jettySize=auto;html=1;entryX=0.5;entryY=0;entryDx=0;entryDy=0;" edge="1" parent="1" source="sXfFxi1NR6_OD0r_vicM-42" target="sXfFxi1NR6_OD0r_vicM-18">
          <mxGeometry relative="1" as="geometry">
            <Array as="points">
              <mxPoint x="560" y="430" />
              <mxPoint x="560" y="450" />
              <mxPoint x="540" y="450" />
            </Array>
          </mxGeometry>
        </mxCell>
        <mxCell id="sXfFxi1NR6_OD0r_vicM-42" value="RANKING" style="rhombus;whiteSpace=wrap;html=1;" vertex="1" parent="1">
          <mxGeometry x="580" y="380" width="80" height="80" as="geometry" />
        </mxCell>
        <mxCell id="sXfFxi1NR6_OD0r_vicM-45" value="DATABASE" style="shape=cylinder3;whiteSpace=wrap;html=1;boundedLbl=1;backgroundOutline=1;size=15;" vertex="1" parent="1">
          <mxGeometry x="590" y="920" width="60" height="80" as="geometry" />
        </mxCell>
        <mxCell id="sXfFxi1NR6_OD0r_vicM-46" style="edgeStyle=orthogonalEdgeStyle;rounded=0;orthogonalLoop=1;jettySize=auto;html=1;exitX=1;exitY=0.5;exitDx=0;exitDy=0;entryX=-0.015;entryY=0.817;entryDx=0;entryDy=0;entryPerimeter=0;" edge="1" parent="1" source="sXfFxi1NR6_OD0r_vicM-11" target="sXfFxi1NR6_OD0r_vicM-23">
          <mxGeometry relative="1" as="geometry" />
        </mxCell>
        <mxCell id="sXfFxi1NR6_OD0r_vicM-47" value="REQUEST&lt;br&gt;ACCEPTED" style="edgeLabel;html=1;align=center;verticalAlign=middle;resizable=0;points=[];" vertex="1" connectable="0" parent="sXfFxi1NR6_OD0r_vicM-46">
          <mxGeometry x="0.1783" y="1" relative="1" as="geometry">
            <mxPoint y="1" as="offset" />
          </mxGeometry>
        </mxCell>
        <mxCell id="sXfFxi1NR6_OD0r_vicM-53" style="edgeStyle=orthogonalEdgeStyle;rounded=0;orthogonalLoop=1;jettySize=auto;html=1;exitX=0.5;exitY=1;exitDx=0;exitDy=0;entryX=0;entryY=0;entryDx=0;entryDy=52.5;entryPerimeter=0;" edge="1" parent="1" source="sXfFxi1NR6_OD0r_vicM-11" target="sXfFxi1NR6_OD0r_vicM-45">
          <mxGeometry relative="1" as="geometry" />
        </mxCell>
        <mxCell id="sXfFxi1NR6_OD0r_vicM-54" value="Text" style="edgeLabel;html=1;align=center;verticalAlign=middle;resizable=0;points=[];" vertex="1" connectable="0" parent="sXfFxi1NR6_OD0r_vicM-53">
          <mxGeometry x="-0.6105" y="-1" relative="1" as="geometry">
            <mxPoint y="1" as="offset" />
          </mxGeometry>
        </mxCell>
        <mxCell id="sXfFxi1NR6_OD0r_vicM-55" value="PAYMENT&amp;nbsp;&lt;br&gt;SERVICE" style="whiteSpace=wrap;html=1;aspect=fixed;direction=south;" vertex="1" parent="1">
          <mxGeometry x="490" y="300" width="80" height="80" as="geometry" />
        </mxCell>
        <mxCell id="sXfFxi1NR6_OD0r_vicM-59" style="edgeStyle=orthogonalEdgeStyle;rounded=0;orthogonalLoop=1;jettySize=auto;html=1;exitX=0.75;exitY=0;exitDx=0;exitDy=0;entryX=-0.018;entryY=0.158;entryDx=0;entryDy=0;entryPerimeter=0;" edge="1" parent="1" source="sXfFxi1NR6_OD0r_vicM-55" target="sXfFxi1NR6_OD0r_vicM-23">
          <mxGeometry relative="1" as="geometry" />
        </mxCell>
        <mxCell id="sXfFxi1NR6_OD0r_vicM-62" style="edgeStyle=orthogonalEdgeStyle;rounded=0;orthogonalLoop=1;jettySize=auto;html=1;entryX=0;entryY=0.5;entryDx=0;entryDy=0;" edge="1" parent="1" source="sXfFxi1NR6_OD0r_vicM-61" target="sXfFxi1NR6_OD0r_vicM-55">
          <mxGeometry relative="1" as="geometry" />
        </mxCell>
        <mxCell id="sXfFxi1NR6_OD0r_vicM-61" value="DATABASE" style="shape=cylinder3;whiteSpace=wrap;html=1;boundedLbl=1;backgroundOutline=1;size=15;" vertex="1" parent="1">
          <mxGeometry x="610" y="220" width="60" height="80" as="geometry" />
        </mxCell>
      </root>
    </mxGraphModel>
  </diagram>
</mxfile>
